# xmcd
#
# Track frame offsets:
#	150
#	29547
#	46865
#	73622
#	94330
#	122852
#	143787
#	163562
#	182935
#	213927
#	231647
#
# Disc length: 3334 seconds
#
# Revision: 0
# Processed by: cddbd v1.4PL0 Copyright (c) Steve Scherf et al.
# Submitted via: audiograbber 1.81.02
#
DISCID=a30d040b
DTITLE=Marvin Sease - Hoochie Momma
DYEAR=1900
DGENRE=Blues
TTITLE0=Marvin Sease - Hoochie Momma
TTITLE1=Marvin Sease - Is It Over
TTITLE2=Marvin Sease - Ain't Nobody
TTITLE3=Marvin Sease - Don't Forget To Tell On You
TTITLE4=Marvin Sease - Thanks For Loving Me
TTITLE5=Marvin Sease - I'm Still Waiting On You
TTITLE6=Marvin Sease - I Wanna Do Something For You
TTITLE7=Marvin Sease - You Must Be Crazy
TTITLE8=Marvin Sease - Don't Come Around
TTITLE9=Marvin Sease - I Can't Believe
TTITLE10=Marvin Sease - Let Me Hold and Squeeze You
EXTD=
EXTT0=
EXTT1=
EXTT2=
EXTT3=
EXTT4=
EXTT5=
EXTT6=
EXTT7=
EXTT8=
EXTT9=
EXTT10=
PLAYORDER=
